<svg width="38" height="38" viewBox="0 0 38 38" fill="none" xmlns="http://www.w3.org/2000/svg">
<path opacity="0.25" d="M0 6C0 2.68629 2.68629 0 6 0H32C35.3137 0 38 2.68629 38 6V32C38 35.3137 35.3137 38 32 38H6C2.68629 38 0 35.3137 0 32V6Z" fill="#151515" fill-opacity="0.87"/>
<path fill-rule="evenodd" clip-rule="evenodd" d="M26.7847 12.1741L23.8448 12.1744C23.7636 12.1709 23.6852 12.1379 23.6193 12.0796C23.5534 12.0212 23.503 11.9402 23.4744 11.8467C22.9986 10.6118 22.6945 10.2703 21.6243 10.2703H17.4803C16.6557 10.2703 16.1502 10.3777 15.5396 11.4083C15.4876 11.4961 15.4417 11.5767 15.4 11.65L15.4 11.65C15.2049 11.9931 15.1017 12.1744 14.8898 12.1744L12.1969 12.1741C10.6086 12.1741 10.2744 13.319 10.2744 14.2793V24.117C10.2566 24.4336 10.2963 24.7512 10.3908 25.0465C10.4853 25.3419 10.6322 25.6076 10.8207 25.8243C11.0092 26.041 11.2346 26.2033 11.4805 26.2993C11.7265 26.3954 11.9867 26.4227 12.2424 26.3795H26.7847C27.0403 26.4227 27.3005 26.3954 27.5465 26.2993C27.7924 26.2033 28.0178 26.041 28.2063 25.8243C28.3949 25.6076 28.5417 25.3419 28.6362 25.0465C28.7307 24.7512 28.7705 24.4336 28.7526 24.117V14.2793C28.7526 13.319 28.4115 12.1741 26.7847 12.1741ZM18.3981 16.4014C19.0074 16.1988 19.6652 16.1925 20.2783 16.3834C20.4504 16.4369 20.6164 16.5053 20.7748 16.5871C20.5959 16.691 20.4755 16.8847 20.4755 17.1064C20.4755 17.4378 20.7442 17.7064 21.0755 17.7064H22.2952C22.6265 17.7064 22.8952 17.4378 22.8952 17.1064V15.8903C22.8952 15.5589 22.6265 15.2903 22.2952 15.2903C22.013 15.2903 21.7764 15.485 21.7123 15.7474C21.3809 15.5292 21.0186 15.357 20.635 15.2376C19.7822 14.9721 18.8672 14.9809 18.0196 15.2626C17.172 15.5444 16.4344 16.085 15.9116 16.8083C15.3887 17.5315 15.1071 18.4007 15.107 19.2926C15.1069 19.624 15.3755 19.8927 15.7068 19.8928C16.0382 19.8928 16.3069 19.6242 16.307 19.2929C16.3071 18.6535 16.5089 18.0303 16.884 17.5113C17.2592 16.9923 17.7889 16.6039 18.3981 16.4014ZM23.0184 18.6942C23.3498 18.6942 23.6184 18.9629 23.6183 19.2943C23.6182 20.1862 23.3366 21.0554 22.8137 21.7787C22.2909 22.5019 21.5533 23.0425 20.7057 23.3243C19.8581 23.606 18.9431 23.6148 18.0903 23.3493C17.7075 23.2301 17.3459 23.0584 17.015 22.8409C16.9506 23.1028 16.7142 23.2972 16.4323 23.2972C16.101 23.2972 15.8323 23.0285 15.8323 22.6972V21.4904L15.8324 21.4754C15.8354 21.1467 16.1028 20.881 16.4323 20.881H17.652C17.9833 20.881 18.252 21.1497 18.252 21.481C18.252 21.703 18.1314 21.8969 17.9522 22.0006C18.1101 22.0821 18.2755 22.1502 18.4469 22.2035C19.06 22.3944 19.7179 22.3881 20.3271 22.1855C20.9364 21.983 21.4661 21.5946 21.8412 21.0756C22.2164 20.5567 22.4182 19.9334 22.4183 19.2941C22.4184 18.9627 22.6871 18.6941 23.0184 18.6942Z" fill="white"/>
</svg>
