<svg width="32" height="32" viewBox="0 0 32 32" fill="none" xmlns="http://www.w3.org/2000/svg">
<circle cx="16" cy="16" r="16" fill="white"/>
<path d="M16.0047 20C16.9592 19.9989 17.8743 19.6193 18.5492 18.9444C19.2241 18.2695 19.6037 17.3545 19.6047 16.4V10.8C19.6047 9.84522 19.2255 8.92954 18.5503 8.25441C17.8752 7.57928 16.9595 7.2 16.0047 7.2C15.05 7.2 14.1343 7.57928 13.4592 8.25441C12.784 8.92954 12.4047 9.84522 12.4047 10.8V16.4C12.4058 17.3545 12.7854 18.2695 13.4603 18.9444C14.1352 19.6193 15.0503 19.9989 16.0047 20Z" fill="#151515"/>
<path d="M21.6047 13.6C21.3926 13.6 21.1891 13.6843 21.0391 13.8343C20.889 13.9843 20.8047 14.1878 20.8047 14.4V16.4C20.8047 17.673 20.299 18.8939 19.3988 19.7941C18.4987 20.6943 17.2778 21.2 16.0047 21.2C14.7317 21.2 13.5108 20.6943 12.6106 19.7941C11.7104 18.8939 11.2047 17.673 11.2047 16.4V14.4C11.2047 14.1878 11.1205 13.9843 10.9704 13.8343C10.8204 13.6843 10.6169 13.6 10.4047 13.6C10.1926 13.6 9.98908 13.6843 9.83905 13.8343C9.68902 13.9843 9.60474 14.1878 9.60474 14.4V16.4C9.6068 17.9288 10.1552 19.4066 11.1509 20.5666C12.1467 21.7267 13.5243 22.4927 15.0351 22.7264C15.0823 22.7337 15.1254 22.7576 15.1565 22.7938C15.1876 22.8301 15.2047 22.8762 15.2047 22.924V24.8C15.2047 25.0122 15.289 25.2157 15.4391 25.3657C15.5891 25.5157 15.7926 25.6 16.0047 25.6C16.2169 25.6 16.4204 25.5157 16.5704 25.3657C16.7205 25.2157 16.8047 25.0122 16.8047 24.8V22.924C16.8048 22.8762 16.8219 22.8301 16.853 22.7938C16.8841 22.7576 16.9271 22.7337 16.9743 22.7264C18.4852 22.4927 19.8628 21.7267 20.8585 20.5666C21.8543 19.4066 22.4027 17.9288 22.4047 16.4V14.4C22.4047 14.1878 22.3205 13.9843 22.1704 13.8343C22.0204 13.6843 21.8169 13.6 21.6047 13.6Z" fill="#151515"/>
<path d="M11 22.3137L22.3137 11" stroke="#777777"/>
<path d="M9 23.3137L23.1421 9.17159" stroke="#151515" stroke-linecap="round"/>
</svg>
