<svg width="25" height="16" viewBox="0 0 25 16" fill="none" xmlns="http://www.w3.org/2000/svg">
<path d="M12.2484 1.00121C8.21736 0.933207 4.04836 3.75021 1.42736 6.63521C1.15225 6.94064 1 7.33714 1 7.74821C1 8.15928 1.15225 8.55578 1.42736 8.86121C3.99136 11.6852 8.14836 14.5672 12.2484 14.4982C16.3484 14.5672 20.5064 11.6852 23.0724 8.86121C23.3475 8.55578 23.4997 8.15928 23.4997 7.74821C23.4997 7.33714 23.3475 6.94064 23.0724 6.63521C20.4484 3.75021 16.2794 0.933207 12.2484 1.00121Z" fill="white" stroke="black" stroke-width="1.5" stroke-linecap="round" stroke-linejoin="round"/>
<path d="M15.9983 7.74905C15.9981 8.49068 15.778 9.21561 15.3658 9.83216C14.9536 10.4487 14.3679 10.9292 13.6827 11.2129C12.9974 11.4966 12.2435 11.5707 11.5161 11.4259C10.7887 11.2811 10.1206 10.9238 9.59629 10.3993C9.07194 9.87486 8.71489 9.20667 8.57027 8.47927C8.42566 7.75187 8.49998 6.99792 8.78384 6.31275C9.0677 5.62759 9.54835 5.04198 10.165 4.62997C10.7817 4.21796 11.5067 3.99805 12.2483 3.99805C12.7409 3.99792 13.2286 4.09486 13.6837 4.28333C14.1388 4.4718 14.5523 4.74811 14.9006 5.09646C15.2488 5.44481 15.525 5.85838 15.7134 6.31352C15.9017 6.76867 15.9986 7.25647 15.9983 7.74905Z" fill="#FEB3C6" stroke="#FEB3C6" stroke-width="1.5" stroke-linecap="round" stroke-linejoin="round"/>
</svg>