<svg width="29" height="30" viewBox="0 0 29 30" fill="none" xmlns="http://www.w3.org/2000/svg">
<path d="M6.31964 19.9585L4.88992 13.2349C4.81786 12.8952 4.86092 12.5411 5.0123 12.2286C5.16369 11.916 5.4148 11.6628 5.72604 11.5087C6.0862 11.3309 6.50097 11.2985 6.88438 11.4182C7.26779 11.5378 7.59046 11.8004 7.78553 12.1516L9.18397 14.6714L12.6001 6.1544C12.7467 5.78955 13.0236 5.49219 13.3771 5.32009C13.7306 5.14798 14.1355 5.11341 14.5131 5.22309C14.7194 5.2821 14.9116 5.38239 15.078 5.5179C15.2445 5.6534 15.3816 5.82128 15.4812 6.01137C15.5808 6.20147 15.6408 6.40981 15.6575 6.62376C15.6742 6.83772 15.6472 7.05284 15.5783 7.25607L13.6556 12.9264L17.0321 7.0781C17.231 6.73358 17.5586 6.48218 17.9429 6.37922C18.3271 6.27625 18.7366 6.33015 19.0811 6.52907C19.4256 6.72798 19.677 7.05561 19.78 7.43988C19.8829 7.82415 19.829 8.23358 19.6301 8.5781L16.2536 14.4264L20.2328 9.8983C20.3705 9.74076 20.5389 9.61285 20.7275 9.52233C20.9162 9.4318 21.1213 9.38056 21.3304 9.3717C21.5395 9.36284 21.7482 9.39655 21.9439 9.47079C22.1396 9.54503 22.3181 9.65824 22.4687 9.80357C22.7539 10.0793 22.9221 10.4542 22.9384 10.8505C22.9546 11.2469 22.8177 11.6343 22.556 11.9324L18.4782 16.5733L22.7651 13.7482C22.9296 13.6394 23.1155 13.5669 23.3103 13.5354C23.505 13.504 23.7042 13.5143 23.8947 13.5657C24.0852 13.6172 24.2625 13.7085 24.415 13.8338C24.5674 13.959 24.6915 14.1152 24.779 14.292C24.9203 14.5782 24.9589 14.9042 24.8886 15.2154C24.8182 15.5267 24.643 15.8043 24.3923 16.0018L19.612 19.7636C19.1619 20.1174 18.7837 20.5539 18.4976 21.0497L17.4311 22.8969C17.0818 23.502 16.5964 24.0173 16.0134 24.4023C15.4304 24.7872 14.7658 25.0311 14.0722 25.1146C13.1056 25.2311 12.1272 25.0309 11.284 24.5441L8.47199 22.9206C7.92567 22.6053 7.45174 22.1786 7.08094 21.6684C6.71014 21.1581 6.45077 20.5755 6.31964 19.9585Z" fill="white" stroke="#555555" stroke-width="1.5" stroke-linecap="round" stroke-linejoin="round"/>
</svg>