<svg width="22" height="20" viewBox="0 0 22 20" fill="none" xmlns="http://www.w3.org/2000/svg">
<path opacity="0.7" d="M10.9998 19L2.47659 9.85539C1.72812 9.08545 1.23423 8.0927 1.06492 7.01788C0.895605 5.94305 1.05947 4.84067 1.53327 3.86699C1.89053 3.13192 2.41251 2.4947 3.05617 2.00787C3.69984 1.52104 4.44676 1.19853 5.23538 1.06693C6.024 0.935324 6.83173 0.998394 7.592 1.25094C8.35227 1.50349 9.04331 1.93828 9.60816 2.51947L10.9998 3.951L12.3915 2.51947C12.9565 1.93828 13.6476 1.50351 14.408 1.25097C15.1684 0.998433 15.9763 0.935363 16.765 1.06696C17.5537 1.19855 18.3008 1.52105 18.9446 2.00786C19.5884 2.49468 20.1105 3.13189 20.468 3.86699C20.9411 4.84096 21.1044 5.94332 20.9348 7.01803C20.7652 8.09275 20.2713 9.08537 19.523 9.85539L10.9998 19Z" fill="#FEB3C6" stroke="black" stroke-linecap="round" stroke-linejoin="round"/>
</svg>