<svg width="24" height="24" viewBox="0 0 24 24" fill="none" xmlns="http://www.w3.org/2000/svg">
<path fill-rule="evenodd" clip-rule="evenodd" d="M7.67714 2.44266C9.29088 1.49543 11.1287 0.997318 12.9999 1.00002C14.6257 0.997216 16.23 1.372 17.6863 2.09483C19.1425 2.81766 20.4111 3.86879 21.3919 5.1654C22.3728 6.46201 23.0391 7.96868 23.3385 9.5667C23.6378 11.1647 23.562 12.8104 23.117 14.3741C22.6719 15.9378 21.8699 17.3769 20.774 18.5778C19.678 19.7787 18.3182 20.7087 16.8016 21.2946C15.285 21.8805 13.6531 22.1061 12.0345 21.9538C10.4158 21.8015 8.85461 21.2755 7.47391 20.417L3.83243 21.7138C3.0028 22.0093 2.22397 21.1656 2.58467 20.3622L4.08291 17.025C3.09421 15.4363 2.54868 13.612 2.50293 11.7414C2.45717 9.87074 2.91286 8.02194 3.82271 6.38683C4.73255 4.75172 6.0634 3.38989 7.67714 2.44266ZM7.12523 13C7.95366 13 8.62523 12.3284 8.62523 11.5C8.62523 10.6716 7.95366 10 7.12523 10C6.29681 10 5.62523 10.6716 5.62523 11.5C5.62523 12.3284 6.29681 13 7.12523 13ZM13.1252 13C13.9537 13 14.6252 12.3284 14.6252 11.5C14.6252 10.6716 13.9537 10 13.1252 10C12.2968 10 11.6252 10.6716 11.6252 11.5C11.6252 12.3284 12.2968 13 13.1252 13ZM20.6252 11.5C20.6252 12.3284 19.9537 13 19.1252 13C18.2968 13 17.6252 12.3284 17.6252 11.5C17.6252 10.6716 18.2968 10 19.1252 10C19.9537 10 20.6252 10.6716 20.6252 11.5Z" fill="#FFFFFF"/>
</svg>