<svg width="24" height="24" viewBox="0 0 24 24" fill="none" xmlns="http://www.w3.org/2000/svg">
<g clip-path="url(#clip0)">
<path d="M8.48417 20.5026C7.89562 20.9664 7.16369 21.1993 6.42125 21.1591C5.98032 21.1987 5.53641 21.1329 5.12475 20.9668C4.7131 20.8007 4.34504 20.5389 4.0498 20.2023C3.47936 19.3187 3.65426 17.7172 4.55566 15.5701C6.36475 11.2583 8.26353 7.84573 7.06704 4.93033C6.39345 3.30416 4.8642 2.07354 2.25148 1.07458C2.13993 1.02557 2.01979 1.0002 1.89836 1C1.77692 0.999803 1.65671 1.02478 1.54501 1.07342C1.43331 1.12206 1.33244 1.19336 1.24854 1.28298C1.16463 1.3726 1.09942 1.47868 1.05687 1.59479C1.01431 1.7109 0.995302 1.83463 1.00098 1.95846C1.00666 2.0823 1.03692 2.20367 1.08991 2.31522C1.1429 2.42676 1.21754 2.52616 1.30928 2.60738C1.40102 2.68861 1.50797 2.74996 1.62363 2.78774C3.71076 3.58801 4.95031 4.52013 5.40953 5.63904C6.26609 7.72395 4.6023 10.8087 2.90623 14.8495C1.74023 17.6293 1.62004 19.7692 2.54746 21.2104C3.00177 21.8074 3.59234 22.2817 4.26761 22.592C4.94287 22.9023 5.68228 23.0391 6.42125 22.9904C7.635 23.0432 8.82248 22.6195 9.73985 21.8065C9.90549 21.6373 9.99898 21.4082 9.99999 21.1689C10.001 20.9297 9.90944 20.6998 9.74524 20.5292C9.57975 20.3581 9.35545 20.2596 9.11998 20.2547C8.88451 20.2497 8.65643 20.3386 8.48417 20.5026Z" fill="#FFFFFF"/>
<path fill-rule="evenodd" clip-rule="evenodd" d="M24.5008 7.99982C28.3256 6.44132 24.5795 1.02038 24.5008 1.00002C24.4585 0.98908 24.9171 0.117715 25.3384 -0.683078C25.7015 -1.37307 26.037 -2.01067 26.0008 -2.00032L14.3153 8.90572L20.7324 14.895L23.1531 11.9811C23.1562 11.9693 23.2507 11.8559 23.3991 11.6778C24.0053 10.9502 25.5116 9.14235 25.3663 8.76487C26.766 7.37268 26.6861 7.35236 24.5008 8.99982V7.99982ZM19.7105 15.993L13.3654 10.0709L10.1697 17.8284C10.0155 18.2026 10.1021 18.6329 10.3892 18.9184L10.5754 19.1035C10.8612 19.3878 11.2898 19.4726 11.6624 19.3186L19.7105 15.993Z" fill="#FFFFFF"/>
</g>
<defs>
<clipPath id="clip0">
<rect width="24" height="24" fill="white"/>
</clipPath>
</defs>
</svg>