<svg width="32" height="32" viewBox="0 0 32 32" fill="none" xmlns="http://www.w3.org/2000/svg">
<circle cx="16" cy="16" r="16" fill="#FFFFFF"/>
<mask id="path-2-inside-1" fill="white">
<path fill-rule="evenodd" clip-rule="evenodd" d="M10 7C7.79086 7 6 8.79086 6 11V15.16C6 17.3691 7.79086 19.16 10 19.16H12.84V22C12.84 24.2091 14.6309 26 16.84 26H21C23.2092 26 25 24.2091 25 22V17.84C25 15.6308 23.2092 13.84 21 13.84H18.16V11C18.16 8.79086 16.3691 7 14.16 7H10Z"/>
</mask>
<path fill-rule="evenodd" clip-rule="evenodd" d="M10 7C7.79086 7 6 8.79086 6 11V15.16C6 17.3691 7.79086 19.16 10 19.16H12.84V22C12.84 24.2091 14.6309 26 16.84 26H21C23.2092 26 25 24.2091 25 22V17.84C25 15.6308 23.2092 13.84 21 13.84H18.16V11C18.16 8.79086 16.3691 7 14.16 7H10Z" fill="#151515"/>
<path d="M12.84 19.16H14.84V17.16H12.84V19.16ZM18.16 13.84H16.16V15.84H18.16V13.84ZM8 11C8 9.89543 8.89543 9 10 9V5C6.68629 5 4 7.68629 4 11H8ZM8 15.16V11H4V15.16H8ZM10 17.16C8.89543 17.16 8 16.2646 8 15.16H4C4 18.4737 6.68629 21.16 10 21.16V17.16ZM12.84 17.16H10V21.16H12.84V17.16ZM14.84 22V19.16H10.84V22H14.84ZM16.84 24C15.7355 24 14.84 23.1045 14.84 22H10.84C10.84 25.3137 13.5263 28 16.84 28V24ZM21 24H16.84V28H21V24ZM23 22C23 23.1045 22.1046 24 21 24V28C24.3137 28 27 25.3137 27 22H23ZM23 17.84V22H27V17.84H23ZM21 15.84C22.1046 15.84 23 16.7354 23 17.84H27C27 14.5263 24.3137 11.84 21 11.84V15.84ZM18.16 15.84H21V11.84H18.16V15.84ZM16.16 11V13.84H20.16V11H16.16ZM14.16 9C15.2646 9 16.16 9.89543 16.16 11H20.16C20.16 7.68629 17.4737 5 14.16 5V9ZM10 9H14.16V5H10V9Z" fill="#151515" mask="url(#path-2-inside-1)"/>
<path fill-rule="evenodd" clip-rule="evenodd" d="M10.9399 15.74V12.32C10.9399 12.1101 11.1101 11.94 11.3199 11.94H14.7399C14.9498 11.94 15.1199 12.1101 15.1199 12.32C15.1199 12.5299 14.9498 12.7 14.7399 12.7H12.2373L18.8086 19.2713C18.957 19.4197 18.957 19.6603 18.8086 19.8087C18.6602 19.9571 18.4196 19.9571 18.2712 19.8087L11.6999 13.2374V15.74C11.6999 15.9499 11.5298 16.12 11.3199 16.12C11.1101 16.12 10.9399 15.9499 10.9399 15.74Z" fill="#FFFFFF" stroke="#FFFFFF"/>
</svg>
