<svg width="24" height="24" viewBox="0 0 24 24" fill="none" xmlns="http://www.w3.org/2000/svg">
<path fill-rule="evenodd" clip-rule="evenodd" d="M12 0C18.6274 -2.89694e-07 24 5.37258 24 12C24 18.6274 18.6274 24 12 24C5.37258 24 0 18.6274 0 12C0 5.37258 5.37258 2.89694e-07 12 0ZM12.5303 5.46967C12.3897 5.32902 12.1989 5.25 12 5.25C11.8011 5.25 11.6103 5.32902 11.4697 5.46967L6.96967 9.96968C6.67678 10.2626 6.67678 10.7374 6.96967 11.0303C7.26256 11.3232 7.73744 11.3232 8.03033 11.0303L11.25 7.81066V18C11.25 18.4142 11.5858 18.75 12 18.75C12.4142 18.75 12.75 18.4142 12.75 18V7.81066L15.9697 11.0303C16.2626 11.3232 16.7374 11.3232 17.0303 11.0303C17.3232 10.7374 17.3232 10.2626 17.0303 9.96968L12.5303 5.46967Z" fill="#FEB3C6"/>
</svg>